<mxfile modified="2024-07-28T19:22:06.522Z" host="Electron" agent="Mozilla/5.0 (Windows NT 10.0; Win64; x64) AppleWebKit/537.36 (KHTML, like Gecko) draw.io/24.2.5 Chrome/120.0.6099.109 Electron/28.1.0 Safari/537.36" etag="etAdLq03RJmyUSg3VLBF" version="24.2.5" type="device">
  <diagram id="Ht1M8jgEwFfnCIfOTk4-" name="Page-1">
    <mxGraphModel dx="2442" dy="1646" grid="1" gridSize="10" guides="1" tooltips="1" connect="1" arrows="1" fold="1" page="1" pageScale="1" pageWidth="160000" pageHeight="160000" math="0" shadow="0">
      <root>
        <mxCell id="0" />
        <mxCell id="1" parent="0" />
        <mxCell id="ld0eEwanSj6hJB2W9I8I-41" value="&lt;font size=&quot;1&quot; style=&quot;&quot;&gt;&lt;b style=&quot;font-size: 18px;&quot;&gt;AWS Cloud&lt;/b&gt;&lt;/font&gt;" style="points=[[0,0],[0.25,0],[0.5,0],[0.75,0],[1,0],[1,0.25],[1,0.5],[1,0.75],[1,1],[0.75,1],[0.5,1],[0.25,1],[0,1],[0,0.75],[0,0.5],[0,0.25]];outlineConnect=0;gradientColor=none;html=1;whiteSpace=wrap;fontSize=12;fontStyle=0;container=1;pointerEvents=0;collapsible=0;recursiveResize=0;shape=mxgraph.aws4.group;grIcon=mxgraph.aws4.group_aws_cloud_alt;strokeColor=#232F3E;fillColor=none;verticalAlign=top;align=left;spacingLeft=30;fontColor=#232F3E;dashed=0;strokeWidth=2;" parent="1" vertex="1">
          <mxGeometry x="450" y="980" width="2070" height="1200" as="geometry" />
        </mxCell>
        <mxCell id="mJWdA4J20BdgcWv3grMu-10" value="&lt;font style=&quot;font-size: 16px;&quot;&gt;&lt;b&gt;Amazon Route 53&lt;/b&gt;&lt;/font&gt;" style="sketch=0;points=[[0,0,0],[0.25,0,0],[0.5,0,0],[0.75,0,0],[1,0,0],[0,1,0],[0.25,1,0],[0.5,1,0],[0.75,1,0],[1,1,0],[0,0.25,0],[0,0.5,0],[0,0.75,0],[1,0.25,0],[1,0.5,0],[1,0.75,0]];outlineConnect=0;fontColor=#232F3E;fillColor=#8C4FFF;strokeColor=#ffffff;dashed=0;verticalLabelPosition=bottom;verticalAlign=top;align=center;html=1;fontSize=12;fontStyle=0;aspect=fixed;shape=mxgraph.aws4.resourceIcon;resIcon=mxgraph.aws4.route_53;" parent="ld0eEwanSj6hJB2W9I8I-41" vertex="1">
          <mxGeometry x="70" y="299.5" width="78" height="78" as="geometry" />
        </mxCell>
        <mxCell id="mJWdA4J20BdgcWv3grMu-5" value="&lt;font style=&quot;font-size: 16px;&quot;&gt;&lt;b&gt;Amazon &lt;br&gt;Cognito&lt;/b&gt;&lt;/font&gt;" style="outlineConnect=0;fontColor=#232F3E;gradientColor=#F54749;gradientDirection=north;fillColor=#C7131F;strokeColor=#ffffff;dashed=0;verticalLabelPosition=bottom;verticalAlign=top;align=center;html=1;fontSize=12;fontStyle=0;aspect=fixed;shape=mxgraph.aws4.resourceIcon;resIcon=mxgraph.aws4.cognito;labelBackgroundColor=#ffffff;" parent="ld0eEwanSj6hJB2W9I8I-41" vertex="1">
          <mxGeometry x="350" y="230.5" width="78" height="78" as="geometry" />
        </mxCell>
        <mxCell id="mJWdA4J20BdgcWv3grMu-12" value="&lt;font style=&quot;font-size: 16px;&quot;&gt;&lt;b&gt;Amazon Cloudfront&lt;/b&gt;&lt;/font&gt;" style="sketch=0;points=[[0,0,0],[0.25,0,0],[0.5,0,0],[0.75,0,0],[1,0,0],[0,1,0],[0.25,1,0],[0.5,1,0],[0.75,1,0],[1,1,0],[0,0.25,0],[0,0.5,0],[0,0.75,0],[1,0.25,0],[1,0.5,0],[1,0.75,0]];outlineConnect=0;fontColor=#232F3E;fillColor=#8C4FFF;strokeColor=#ffffff;dashed=0;verticalLabelPosition=bottom;verticalAlign=top;align=center;html=1;fontSize=12;fontStyle=0;aspect=fixed;shape=mxgraph.aws4.resourceIcon;resIcon=mxgraph.aws4.cloudfront;" parent="ld0eEwanSj6hJB2W9I8I-41" vertex="1">
          <mxGeometry x="350" y="100" width="78" height="78" as="geometry" />
        </mxCell>
        <mxCell id="mJWdA4J20BdgcWv3grMu-14" value="&lt;font style=&quot;font-size: 16px;&quot;&gt;&lt;b&gt;Amazon Amplify&lt;/b&gt;&lt;/font&gt;" style="sketch=0;points=[[0,0,0],[0.25,0,0],[0.5,0,0],[0.75,0,0],[1,0,0],[0,1,0],[0.25,1,0],[0.5,1,0],[0.75,1,0],[1,1,0],[0,0.25,0],[0,0.5,0],[0,0.75,0],[1,0.25,0],[1,0.5,0],[1,0.75,0]];outlineConnect=0;fontColor=#232F3E;fillColor=#DD344C;strokeColor=#ffffff;dashed=0;verticalLabelPosition=bottom;verticalAlign=top;align=center;html=1;fontSize=12;fontStyle=0;aspect=fixed;shape=mxgraph.aws4.resourceIcon;resIcon=mxgraph.aws4.amplify;" parent="ld0eEwanSj6hJB2W9I8I-41" vertex="1">
          <mxGeometry x="510" y="100" width="78" height="78" as="geometry" />
        </mxCell>
        <mxCell id="ld0eEwanSj6hJB2W9I8I-50" style="edgeStyle=orthogonalEdgeStyle;rounded=0;orthogonalLoop=1;jettySize=auto;html=1;startArrow=open;startFill=0;endArrow=open;endFill=0;strokeWidth=2;strokeColor=#808080;exitX=0;exitY=0.5;exitDx=0;exitDy=0;exitPerimeter=0;entryX=1;entryY=0.5;entryDx=0;entryDy=0;entryPerimeter=0;" parent="ld0eEwanSj6hJB2W9I8I-41" source="mJWdA4J20BdgcWv3grMu-14" target="mJWdA4J20BdgcWv3grMu-12" edge="1">
          <mxGeometry relative="1" as="geometry">
            <Array as="points" />
            <mxPoint x="581.97" y="510" as="sourcePoint" />
            <mxPoint x="531.4700000000003" y="139" as="targetPoint" />
          </mxGeometry>
        </mxCell>
        <mxCell id="mJWdA4J20BdgcWv3grMu-23" value="&lt;font style=&quot;font-size: 14px;&quot;&gt;&lt;b&gt;Amazon&lt;br&gt;DynamoDB&lt;/b&gt;&lt;/font&gt;" style="outlineConnect=0;fontColor=#232F3E;gradientColor=#4D72F3;gradientDirection=north;fillColor=#3334B9;strokeColor=#ffffff;dashed=0;verticalLabelPosition=bottom;verticalAlign=top;align=center;html=1;fontSize=12;fontStyle=0;aspect=fixed;shape=mxgraph.aws4.resourceIcon;resIcon=mxgraph.aws4.dynamodb;labelBackgroundColor=#ffffff;spacingTop=5;" parent="ld0eEwanSj6hJB2W9I8I-41" vertex="1">
          <mxGeometry x="1879.5000000000005" y="1043.07" width="78" height="78" as="geometry" />
        </mxCell>
        <mxCell id="mJWdA4J20BdgcWv3grMu-24" style="edgeStyle=orthogonalEdgeStyle;rounded=0;orthogonalLoop=1;jettySize=auto;html=1;startArrow=open;startFill=0;endArrow=open;endFill=0;strokeWidth=2;strokeColor=#17B327;fillColor=#d5e8d4;" parent="ld0eEwanSj6hJB2W9I8I-41" source="mJWdA4J20BdgcWv3grMu-7" target="mJWdA4J20BdgcWv3grMu-23" edge="1">
          <mxGeometry relative="1" as="geometry">
            <Array as="points">
              <mxPoint x="1870" y="1082" />
              <mxPoint x="1870" y="1082" />
            </Array>
            <mxPoint x="1068.4700000000003" y="967.1799999999994" as="sourcePoint" />
            <mxPoint x="1379.4700000000003" y="723.6800000000001" as="targetPoint" />
          </mxGeometry>
        </mxCell>
        <mxCell id="mJWdA4J20BdgcWv3grMu-25" value="Get&amp;nbsp;&lt;div style=&quot;font-size: 14px;&quot;&gt;metadata&lt;/div&gt;" style="edgeLabel;html=1;align=center;verticalAlign=middle;resizable=0;points=[];fontStyle=1;fontSize=14;" parent="mJWdA4J20BdgcWv3grMu-24" vertex="1" connectable="0">
          <mxGeometry x="-0.0162" y="-1" relative="1" as="geometry">
            <mxPoint x="22" y="-1" as="offset" />
          </mxGeometry>
        </mxCell>
        <mxCell id="mJWdA4J20BdgcWv3grMu-26" style="edgeStyle=orthogonalEdgeStyle;rounded=0;orthogonalLoop=1;jettySize=auto;html=1;startArrow=open;startFill=0;endArrow=open;endFill=0;strokeWidth=2;strokeColor=#17B327;fillColor=#d5e8d4;exitX=1;exitY=0.75;exitDx=0;exitDy=0;exitPerimeter=0;" parent="ld0eEwanSj6hJB2W9I8I-41" source="mJWdA4J20BdgcWv3grMu-20" target="mJWdA4J20BdgcWv3grMu-7" edge="1">
          <mxGeometry relative="1" as="geometry">
            <Array as="points" />
            <mxPoint x="350.46999999999997" y="815.4299999999998" as="sourcePoint" />
            <mxPoint x="800.47" y="815.4299999999998" as="targetPoint" />
          </mxGeometry>
        </mxCell>
        <mxCell id="5lAl59n7Okdq8f2gYlIW-1" value="Display&lt;br&gt;Media" style="edgeLabel;html=1;align=center;verticalAlign=middle;resizable=0;points=[];" parent="mJWdA4J20BdgcWv3grMu-26" vertex="1" connectable="0">
          <mxGeometry x="-0.4528" relative="1" as="geometry">
            <mxPoint x="-146" y="-20" as="offset" />
          </mxGeometry>
        </mxCell>
        <mxCell id="b78Kw-A_XBhZnVRYqdvD-1" value="Fetch&lt;div style=&quot;font-size: 13px;&quot;&gt;Media metadata&lt;/div&gt;" style="edgeLabel;html=1;align=center;verticalAlign=middle;resizable=0;points=[];fontStyle=1;fontSize=13;" parent="mJWdA4J20BdgcWv3grMu-26" vertex="1" connectable="0">
          <mxGeometry x="-0.1102" y="1" relative="1" as="geometry">
            <mxPoint as="offset" />
          </mxGeometry>
        </mxCell>
        <mxCell id="mJWdA4J20BdgcWv3grMu-29" value="&lt;b&gt;Amazon S3&lt;/b&gt;" style="sketch=0;points=[[0,0,0],[0.25,0,0],[0.5,0,0],[0.75,0,0],[1,0,0],[0,1,0],[0.25,1,0],[0.5,1,0],[0.75,1,0],[1,1,0],[0,0.25,0],[0,0.5,0],[0,0.75,0],[1,0.25,0],[1,0.5,0],[1,0.75,0]];outlineConnect=0;fontColor=#232F3E;fillColor=#7AA116;strokeColor=#ffffff;dashed=0;verticalLabelPosition=middle;verticalAlign=middle;align=left;html=1;fontSize=12;fontStyle=0;aspect=fixed;shape=mxgraph.aws4.resourceIcon;resIcon=mxgraph.aws4.s3;labelPosition=right;" parent="ld0eEwanSj6hJB2W9I8I-41" vertex="1">
          <mxGeometry x="1880.0000000000002" y="710" width="77.5" height="77.5" as="geometry" />
        </mxCell>
        <mxCell id="mJWdA4J20BdgcWv3grMu-34" value="&lt;font style=&quot;font-size: 14px;&quot;&gt;Amazon SQS&lt;/font&gt;" style="sketch=0;points=[[0,0,0],[0.25,0,0],[0.5,0,0],[0.75,0,0],[1,0,0],[0,1,0],[0.25,1,0],[0.5,1,0],[0.75,1,0],[1,1,0],[0,0.25,0],[0,0.5,0],[0,0.75,0],[1,0.25,0],[1,0.5,0],[1,0.75,0]];outlineConnect=0;fontColor=#232F3E;fillColor=#E7157B;strokeColor=#ffffff;dashed=0;verticalLabelPosition=bottom;verticalAlign=top;align=center;html=1;fontSize=12;fontStyle=1;aspect=fixed;shape=mxgraph.aws4.resourceIcon;resIcon=mxgraph.aws4.sqs;" parent="ld0eEwanSj6hJB2W9I8I-41" vertex="1">
          <mxGeometry x="880" y="796.4299999999998" width="78" height="78" as="geometry" />
        </mxCell>
        <mxCell id="mJWdA4J20BdgcWv3grMu-37" style="edgeStyle=orthogonalEdgeStyle;rounded=0;orthogonalLoop=1;jettySize=auto;html=1;startArrow=none;startFill=0;endArrow=open;endFill=0;strokeWidth=2;strokeColor=#1274FD;fillColor=#dae8fc;" parent="ld0eEwanSj6hJB2W9I8I-41" source="mJWdA4J20BdgcWv3grMu-34" target="mJWdA4J20BdgcWv3grMu-30" edge="1">
          <mxGeometry relative="1" as="geometry">
            <Array as="points">
              <mxPoint x="980" y="836" />
              <mxPoint x="980" y="836" />
            </Array>
            <mxPoint x="878.47" y="796.4299999999998" as="sourcePoint" />
            <mxPoint x="990.4700000000001" y="725.4300000000001" as="targetPoint" />
          </mxGeometry>
        </mxCell>
        <mxCell id="5lAl59n7Okdq8f2gYlIW-2" value="Upload&lt;div style=&quot;font-size: 14px;&quot;&gt;Media&lt;/div&gt;" style="edgeLabel;html=1;align=center;verticalAlign=middle;resizable=0;points=[];fontStyle=1;fontSize=14;" parent="mJWdA4J20BdgcWv3grMu-37" vertex="1" connectable="0">
          <mxGeometry x="-0.4528" y="1" relative="1" as="geometry">
            <mxPoint x="21" y="1" as="offset" />
          </mxGeometry>
        </mxCell>
        <mxCell id="mJWdA4J20BdgcWv3grMu-38" style="edgeStyle=orthogonalEdgeStyle;rounded=0;orthogonalLoop=1;jettySize=auto;html=1;startArrow=none;startFill=0;endArrow=open;endFill=0;strokeWidth=2;strokeColor=#1274FD;fillColor=#dae8fc;" parent="ld0eEwanSj6hJB2W9I8I-41" source="mJWdA4J20BdgcWv3grMu-30" target="mJWdA4J20BdgcWv3grMu-29" edge="1">
          <mxGeometry relative="1" as="geometry">
            <Array as="points">
              <mxPoint x="1919" y="835" />
            </Array>
            <mxPoint x="1204.9700000000003" y="829.5085470085471" as="sourcePoint" />
            <mxPoint x="1850" y="780" as="targetPoint" />
          </mxGeometry>
        </mxCell>
        <mxCell id="4zGSPr-9QVFY_8gMiKBr-6" value="Upload&amp;nbsp;&lt;div style=&quot;font-size: 14px;&quot;&gt;file to S3&lt;/div&gt;" style="edgeLabel;html=1;align=center;verticalAlign=middle;resizable=0;points=[];fontStyle=1;fontSize=14;" parent="mJWdA4J20BdgcWv3grMu-38" vertex="1" connectable="0">
          <mxGeometry x="-0.0351" y="-1" relative="1" as="geometry">
            <mxPoint x="-14" y="1" as="offset" />
          </mxGeometry>
        </mxCell>
        <mxCell id="mJWdA4J20BdgcWv3grMu-40" style="edgeStyle=orthogonalEdgeStyle;rounded=0;orthogonalLoop=1;jettySize=auto;html=1;startArrow=none;startFill=0;endArrow=open;endFill=0;strokeWidth=2;strokeColor=#1274FD;fillColor=#dae8fc;" parent="ld0eEwanSj6hJB2W9I8I-41" source="mJWdA4J20BdgcWv3grMu-30" target="mJWdA4J20BdgcWv3grMu-23" edge="1">
          <mxGeometry relative="1" as="geometry">
            <Array as="points">
              <mxPoint x="1191" y="856" />
              <mxPoint x="1191" y="980" />
              <mxPoint x="1920" y="980" />
            </Array>
            <mxPoint x="1230.4700000000003" y="726.4300000000001" as="sourcePoint" />
            <mxPoint x="1290.4700000000003" y="836.4299999999998" as="targetPoint" />
          </mxGeometry>
        </mxCell>
        <mxCell id="mJWdA4J20BdgcWv3grMu-44" value="Insert&amp;nbsp;&lt;div style=&quot;font-size: 14px;&quot;&gt;metadata&lt;/div&gt;" style="edgeLabel;html=1;align=center;verticalAlign=middle;resizable=0;points=[];fontStyle=1;fontSize=14;" parent="mJWdA4J20BdgcWv3grMu-40" vertex="1" connectable="0">
          <mxGeometry x="-0.1273" y="-3" relative="1" as="geometry">
            <mxPoint x="86" y="-3" as="offset" />
          </mxGeometry>
        </mxCell>
        <mxCell id="ld0eEwanSj6hJB2W9I8I-7" style="edgeStyle=orthogonalEdgeStyle;rounded=0;orthogonalLoop=1;jettySize=auto;html=1;startArrow=open;startFill=0;endArrow=none;endFill=0;strokeWidth=2;strokeColor=#1274FD;" parent="ld0eEwanSj6hJB2W9I8I-41" source="mJWdA4J20BdgcWv3grMu-34" target="mJWdA4J20BdgcWv3grMu-20" edge="1">
          <mxGeometry relative="1" as="geometry">
            <Array as="points" />
            <mxPoint x="940.47" y="805.2399999999998" as="sourcePoint" />
            <mxPoint x="880.47" y="805.4299999999998" as="targetPoint" />
          </mxGeometry>
        </mxCell>
        <mxCell id="mJWdA4J20BdgcWv3grMu-20" value="&lt;font style=&quot;font-size: 16px;&quot;&gt;API Gateway&lt;/font&gt;" style="sketch=0;points=[[0,0,0],[0.25,0,0],[0.5,0,0],[0.75,0,0],[1,0,0],[0,1,0],[0.25,1,0],[0.5,1,0],[0.75,1,0],[1,1,0],[0,0.25,0],[0,0.5,0],[0,0.75,0],[1,0.25,0],[1,0.5,0],[1,0.75,0]];outlineConnect=0;fontColor=#232F3E;fillColor=#E7157B;strokeColor=#ffffff;dashed=0;verticalLabelPosition=bottom;verticalAlign=top;align=center;html=1;fontSize=12;fontStyle=1;aspect=fixed;shape=mxgraph.aws4.resourceIcon;resIcon=mxgraph.aws4.api_gateway;" parent="ld0eEwanSj6hJB2W9I8I-41" vertex="1">
          <mxGeometry x="750" y="866.4299999999998" width="78" height="78" as="geometry" />
        </mxCell>
        <mxCell id="mJWdA4J20BdgcWv3grMu-45" value="&lt;b&gt;AWS Lambda&lt;br&gt;(CreateImageThumbnail)&lt;/b&gt;" style="outlineConnect=0;fontColor=#232F3E;gradientColor=#F78E04;gradientDirection=north;fillColor=#D05C17;strokeColor=#ffffff;dashed=0;verticalLabelPosition=bottom;verticalAlign=top;align=center;html=1;fontSize=12;fontStyle=0;aspect=fixed;shape=mxgraph.aws4.resourceIcon;resIcon=mxgraph.aws4.lambda;labelBackgroundColor=#ffffff;spacingTop=3;" parent="ld0eEwanSj6hJB2W9I8I-41" vertex="1">
          <mxGeometry x="1061.9700000000003" y="589.5" width="78" height="78" as="geometry" />
        </mxCell>
        <mxCell id="mJWdA4J20BdgcWv3grMu-30" value="&lt;font style=&quot;font-size: 14px;&quot;&gt;AWS Lambda&lt;br&gt;(UploadMedia)&lt;/font&gt;" style="outlineConnect=0;fontColor=#232F3E;gradientColor=#F78E04;gradientDirection=north;fillColor=#D05C17;strokeColor=#ffffff;dashed=0;verticalLabelPosition=bottom;verticalAlign=top;align=center;html=1;fontSize=12;fontStyle=1;aspect=fixed;shape=mxgraph.aws4.resourceIcon;resIcon=mxgraph.aws4.lambda;labelBackgroundColor=#ffffff;spacingTop=3;" parent="ld0eEwanSj6hJB2W9I8I-41" vertex="1">
          <mxGeometry x="1071.9700000000003" y="796.4299999999998" width="78" height="78" as="geometry" />
        </mxCell>
        <mxCell id="mJWdA4J20BdgcWv3grMu-7" value="&lt;font style=&quot;font-size: 14px;&quot;&gt;AWS Lambda&lt;br&gt;(GetMedia)&lt;/font&gt;" style="outlineConnect=0;fontColor=#232F3E;gradientColor=#F78E04;gradientDirection=north;fillColor=#D05C17;strokeColor=#ffffff;dashed=0;verticalLabelPosition=bottom;verticalAlign=top;align=center;html=1;fontSize=12;fontStyle=1;aspect=fixed;shape=mxgraph.aws4.resourceIcon;resIcon=mxgraph.aws4.lambda;labelBackgroundColor=#ffffff;spacingTop=3;" parent="ld0eEwanSj6hJB2W9I8I-41" vertex="1">
          <mxGeometry x="1071.9700000000003" y="1043.07" width="78" height="78" as="geometry" />
        </mxCell>
        <mxCell id="4zGSPr-9QVFY_8gMiKBr-9" value="Amazon SNS" style="sketch=0;points=[[0,0,0],[0.25,0,0],[0.5,0,0],[0.75,0,0],[1,0,0],[0,1,0],[0.25,1,0],[0.5,1,0],[0.75,1,0],[1,1,0],[0,0.25,0],[0,0.5,0],[0,0.75,0],[1,0.25,0],[1,0.5,0],[1,0.75,0]];outlineConnect=0;fontColor=#232F3E;fillColor=#E7157B;strokeColor=#ffffff;dashed=0;verticalLabelPosition=bottom;verticalAlign=top;align=center;html=1;fontSize=12;fontStyle=1;aspect=fixed;shape=mxgraph.aws4.resourceIcon;resIcon=mxgraph.aws4.sns;" parent="ld0eEwanSj6hJB2W9I8I-41" vertex="1">
          <mxGeometry x="1593.4700000000003" y="521.5" width="78" height="78" as="geometry" />
        </mxCell>
        <mxCell id="4zGSPr-9QVFY_8gMiKBr-10" style="edgeStyle=orthogonalEdgeStyle;rounded=0;orthogonalLoop=1;jettySize=auto;html=1;startArrow=none;startFill=0;endArrow=open;endFill=0;strokeWidth=2;strokeColor=#1274FD;entryX=1;entryY=0.5;entryDx=0;entryDy=0;entryPerimeter=0;" parent="ld0eEwanSj6hJB2W9I8I-41" target="4zGSPr-9QVFY_8gMiKBr-9" edge="1">
          <mxGeometry relative="1" as="geometry">
            <Array as="points">
              <mxPoint x="1920" y="710" />
              <mxPoint x="1920" y="561" />
            </Array>
            <mxPoint x="1920" y="710" as="sourcePoint" />
            <mxPoint x="1631.9700000000003" y="609.5" as="targetPoint" />
          </mxGeometry>
        </mxCell>
        <mxCell id="5lAl59n7Okdq8f2gYlIW-12" value="&lt;font style=&quot;font-size: 14px;&quot;&gt;&lt;b&gt;S3 trigger&lt;/b&gt;&lt;/font&gt;&lt;div style=&quot;font-size: 14px;&quot;&gt;&lt;font style=&quot;font-size: 14px;&quot;&gt;&lt;b&gt;SNS topic&lt;/b&gt;&lt;/font&gt;&lt;/div&gt;" style="edgeLabel;html=1;align=center;verticalAlign=middle;resizable=0;points=[];" parent="4zGSPr-9QVFY_8gMiKBr-10" vertex="1" connectable="0">
          <mxGeometry x="0.3975" y="-1" relative="1" as="geometry">
            <mxPoint x="29" y="1" as="offset" />
          </mxGeometry>
        </mxCell>
        <mxCell id="4zGSPr-9QVFY_8gMiKBr-11" value="&lt;b&gt;Amazon SQS&lt;/b&gt;" style="sketch=0;points=[[0,0,0],[0.25,0,0],[0.5,0,0],[0.75,0,0],[1,0,0],[0,1,0],[0.25,1,0],[0.5,1,0],[0.75,1,0],[1,1,0],[0,0.25,0],[0,0.5,0],[0,0.75,0],[1,0.25,0],[1,0.5,0],[1,0.75,0]];outlineConnect=0;fontColor=#232F3E;fillColor=#E7157B;strokeColor=#ffffff;dashed=0;verticalLabelPosition=bottom;verticalAlign=top;align=center;html=1;fontSize=12;fontStyle=0;aspect=fixed;shape=mxgraph.aws4.resourceIcon;resIcon=mxgraph.aws4.sqs;" parent="ld0eEwanSj6hJB2W9I8I-41" vertex="1">
          <mxGeometry x="1351.9700000000003" y="467.5" width="78" height="78" as="geometry" />
        </mxCell>
        <mxCell id="4zGSPr-9QVFY_8gMiKBr-13" style="edgeStyle=orthogonalEdgeStyle;rounded=0;orthogonalLoop=1;jettySize=auto;html=1;startArrow=none;startFill=0;endArrow=open;endFill=0;strokeWidth=2;strokeColor=#1274FD;entryX=1;entryY=0.5;entryDx=0;entryDy=0;entryPerimeter=0;" parent="ld0eEwanSj6hJB2W9I8I-41" source="4zGSPr-9QVFY_8gMiKBr-9" target="4zGSPr-9QVFY_8gMiKBr-11" edge="1">
          <mxGeometry relative="1" as="geometry">
            <Array as="points">
              <mxPoint x="1470" y="570" />
              <mxPoint x="1470" y="507" />
            </Array>
            <mxPoint x="1580" y="570" as="sourcePoint" />
            <mxPoint x="1411.9700000000003" y="538.5" as="targetPoint" />
          </mxGeometry>
        </mxCell>
        <mxCell id="5lAl59n7Okdq8f2gYlIW-17" value="Video&lt;div&gt;Thumbnail&lt;/div&gt;" style="edgeLabel;html=1;align=center;verticalAlign=middle;resizable=0;points=[];fontStyle=1" parent="4zGSPr-9QVFY_8gMiKBr-13" vertex="1" connectable="0">
          <mxGeometry x="0.3529" y="2" relative="1" as="geometry">
            <mxPoint as="offset" />
          </mxGeometry>
        </mxCell>
        <mxCell id="ld0eEwanSj6hJB2W9I8I-56" value="Amazon SQS" style="sketch=0;points=[[0,0,0],[0.25,0,0],[0.5,0,0],[0.75,0,0],[1,0,0],[0,1,0],[0.25,1,0],[0.5,1,0],[0.75,1,0],[1,1,0],[0,0.25,0],[0,0.5,0],[0,0.75,0],[1,0.25,0],[1,0.5,0],[1,0.75,0]];outlineConnect=0;fontColor=#232F3E;fillColor=#E7157B;strokeColor=#ffffff;dashed=0;verticalLabelPosition=bottom;verticalAlign=top;align=center;html=1;fontSize=12;fontStyle=1;aspect=fixed;shape=mxgraph.aws4.resourceIcon;resIcon=mxgraph.aws4.sqs;" parent="ld0eEwanSj6hJB2W9I8I-41" vertex="1">
          <mxGeometry x="1351.9700000000003" y="589.5" width="78" height="78" as="geometry" />
        </mxCell>
        <mxCell id="4zGSPr-9QVFY_8gMiKBr-16" style="edgeStyle=orthogonalEdgeStyle;rounded=0;orthogonalLoop=1;jettySize=auto;html=1;startArrow=none;startFill=0;endArrow=open;endFill=0;strokeWidth=2;strokeColor=#1274FD;entryX=1;entryY=0.5;entryDx=0;entryDy=0;entryPerimeter=0;" parent="ld0eEwanSj6hJB2W9I8I-41" source="4zGSPr-9QVFY_8gMiKBr-9" target="ld0eEwanSj6hJB2W9I8I-56" edge="1">
          <mxGeometry relative="1" as="geometry">
            <Array as="points">
              <mxPoint x="1470" y="580" />
              <mxPoint x="1470" y="629" />
            </Array>
            <mxPoint x="1551.9700000000003" y="607.5" as="sourcePoint" />
            <mxPoint x="1409.9700000000003" y="548.5" as="targetPoint" />
          </mxGeometry>
        </mxCell>
        <mxCell id="5lAl59n7Okdq8f2gYlIW-18" value="Image&lt;div&gt;Thumnail&lt;/div&gt;" style="edgeLabel;html=1;align=center;verticalAlign=middle;resizable=0;points=[];fontStyle=1" parent="4zGSPr-9QVFY_8gMiKBr-16" vertex="1" connectable="0">
          <mxGeometry x="0.4023" y="1" relative="1" as="geometry">
            <mxPoint as="offset" />
          </mxGeometry>
        </mxCell>
        <mxCell id="4zGSPr-9QVFY_8gMiKBr-21" style="edgeStyle=orthogonalEdgeStyle;rounded=0;orthogonalLoop=1;jettySize=auto;html=1;startArrow=open;startFill=0;endArrow=open;endFill=0;strokeWidth=2;strokeColor=#808080;" parent="ld0eEwanSj6hJB2W9I8I-41" source="mJWdA4J20BdgcWv3grMu-12" target="mJWdA4J20BdgcWv3grMu-29" edge="1">
          <mxGeometry relative="1" as="geometry">
            <Array as="points">
              <mxPoint x="470" y="160" />
              <mxPoint x="470" y="770" />
            </Array>
            <mxPoint x="403.47" y="360" as="sourcePoint" />
            <mxPoint x="1860" y="770" as="targetPoint" />
          </mxGeometry>
        </mxCell>
        <mxCell id="5lAl59n7Okdq8f2gYlIW-7" value="Cloudfront access&lt;div style=&quot;font-size: 14px;&quot;&gt;to S3&lt;/div&gt;" style="edgeLabel;html=1;align=center;verticalAlign=middle;resizable=0;points=[];fontSize=14;fontStyle=1" parent="4zGSPr-9QVFY_8gMiKBr-21" vertex="1" connectable="0">
          <mxGeometry x="-0.6518" y="1" relative="1" as="geometry">
            <mxPoint x="-1" y="29" as="offset" />
          </mxGeometry>
        </mxCell>
        <mxCell id="4zGSPr-9QVFY_8gMiKBr-23" value="&lt;b&gt;AWS Lambda&lt;br&gt;(CreateVideoThumbnail)&lt;/b&gt;" style="outlineConnect=0;fontColor=#232F3E;gradientColor=#F78E04;gradientDirection=north;fillColor=#D05C17;strokeColor=#ffffff;dashed=0;verticalLabelPosition=bottom;verticalAlign=top;align=center;html=1;fontSize=12;fontStyle=0;aspect=fixed;shape=mxgraph.aws4.resourceIcon;resIcon=mxgraph.aws4.lambda;labelBackgroundColor=#ffffff;spacingTop=3;" parent="ld0eEwanSj6hJB2W9I8I-41" vertex="1">
          <mxGeometry x="1061.9700000000003" y="467.5" width="78" height="78" as="geometry" />
        </mxCell>
        <mxCell id="4zGSPr-9QVFY_8gMiKBr-25" value="&lt;b&gt;AWS Lambda&lt;br&gt;(ResizedImage)&lt;/b&gt;" style="outlineConnect=0;fontColor=#232F3E;gradientColor=#F78E04;gradientDirection=north;fillColor=#D05C17;strokeColor=#ffffff;dashed=0;verticalLabelPosition=bottom;verticalAlign=top;align=center;html=1;fontSize=12;fontStyle=0;aspect=fixed;shape=mxgraph.aws4.resourceIcon;resIcon=mxgraph.aws4.lambda;labelBackgroundColor=#ffffff;spacingTop=3;" parent="ld0eEwanSj6hJB2W9I8I-41" vertex="1">
          <mxGeometry x="1061.97" y="340" width="78" height="78" as="geometry" />
        </mxCell>
        <mxCell id="4zGSPr-9QVFY_8gMiKBr-26" style="edgeStyle=orthogonalEdgeStyle;rounded=0;orthogonalLoop=1;jettySize=auto;html=1;startArrow=none;startFill=0;endArrow=open;endFill=0;strokeWidth=2;strokeColor=#1274FD;exitX=0;exitY=0.5;exitDx=0;exitDy=0;exitPerimeter=0;fillColor=#dae8fc;" parent="ld0eEwanSj6hJB2W9I8I-41" source="4zGSPr-9QVFY_8gMiKBr-11" target="4zGSPr-9QVFY_8gMiKBr-23" edge="1">
          <mxGeometry relative="1" as="geometry">
            <Array as="points" />
            <mxPoint x="1361.9700000000003" y="697" as="sourcePoint" />
            <mxPoint x="1154.9700000000003" y="697" as="targetPoint" />
          </mxGeometry>
        </mxCell>
        <mxCell id="4zGSPr-9QVFY_8gMiKBr-27" value="&lt;b&gt;AWS Rekognition&lt;/b&gt;&lt;div&gt;&lt;b&gt;Label&lt;/b&gt;&lt;/div&gt;" style="sketch=0;points=[[0,0,0],[0.25,0,0],[0.5,0,0],[0.75,0,0],[1,0,0],[0,1,0],[0.25,1,0],[0.5,1,0],[0.75,1,0],[1,1,0],[0,0.25,0],[0,0.5,0],[0,0.75,0],[1,0.25,0],[1,0.5,0],[1,0.75,0]];outlineConnect=0;fontColor=#232F3E;fillColor=#01A88D;strokeColor=#ffffff;dashed=0;verticalLabelPosition=bottom;verticalAlign=top;align=center;html=1;fontSize=12;fontStyle=0;aspect=fixed;shape=mxgraph.aws4.resourceIcon;resIcon=mxgraph.aws4.rekognition_2;" parent="ld0eEwanSj6hJB2W9I8I-41" vertex="1">
          <mxGeometry x="870" y="99.99999999999999" width="78" height="78" as="geometry" />
        </mxCell>
        <mxCell id="4zGSPr-9QVFY_8gMiKBr-75" style="edgeStyle=orthogonalEdgeStyle;rounded=0;orthogonalLoop=1;jettySize=auto;html=1;startArrow=open;startFill=0;endArrow=none;endFill=0;strokeWidth=2;strokeColor=#1274FD;fillColor=#dae8fc;" parent="ld0eEwanSj6hJB2W9I8I-41" source="mJWdA4J20BdgcWv3grMu-29" target="mJWdA4J20BdgcWv3grMu-45" edge="1">
          <mxGeometry relative="1" as="geometry">
            <Array as="points">
              <mxPoint x="960" y="730" />
              <mxPoint x="960" y="630" />
            </Array>
            <mxPoint x="1840" y="720" as="sourcePoint" />
            <mxPoint x="751.97" y="618.5" as="targetPoint" />
          </mxGeometry>
        </mxCell>
        <mxCell id="5lAl59n7Okdq8f2gYlIW-26" value="Return&lt;div style=&quot;font-size: 14px;&quot;&gt;thumbnail&lt;/div&gt;&lt;div style=&quot;font-size: 14px;&quot;&gt;to S3&lt;/div&gt;" style="edgeLabel;html=1;align=center;verticalAlign=middle;resizable=0;points=[];fontSize=14;fontStyle=1" parent="4zGSPr-9QVFY_8gMiKBr-75" vertex="1" connectable="0">
          <mxGeometry x="0.7906" y="-1" relative="1" as="geometry">
            <mxPoint x="49" y="-17" as="offset" />
          </mxGeometry>
        </mxCell>
        <mxCell id="mJWdA4J20BdgcWv3grMu-13" style="edgeStyle=orthogonalEdgeStyle;rounded=0;orthogonalLoop=1;jettySize=auto;html=1;startArrow=open;startFill=0;endArrow=open;endFill=0;strokeWidth=2;strokeColor=#808080;entryX=0;entryY=0.5;entryDx=0;entryDy=0;entryPerimeter=0;" parent="ld0eEwanSj6hJB2W9I8I-41" target="mJWdA4J20BdgcWv3grMu-12" edge="1">
          <mxGeometry relative="1" as="geometry">
            <Array as="points">
              <mxPoint x="190" y="802" />
              <mxPoint x="190" y="139" />
            </Array>
            <mxPoint x="-108.99563941719941" y="801.4969230769229" as="sourcePoint" />
            <mxPoint x="313.61000000000024" y="329.49692307692294" as="targetPoint" />
          </mxGeometry>
        </mxCell>
        <mxCell id="4zGSPr-9QVFY_8gMiKBr-111" value="Web Access" style="edgeLabel;html=1;align=center;verticalAlign=middle;resizable=0;points=[];fontSize=14;fontStyle=1" parent="mJWdA4J20BdgcWv3grMu-13" vertex="1" connectable="0">
          <mxGeometry x="0.0927" y="-2" relative="1" as="geometry">
            <mxPoint x="-2" y="18" as="offset" />
          </mxGeometry>
        </mxCell>
        <mxCell id="4zGSPr-9QVFY_8gMiKBr-105" value="&lt;font size=&quot;1&quot; style=&quot;&quot;&gt;&lt;b style=&quot;font-size: 16px;&quot;&gt;Cloudwatch&lt;/b&gt;&lt;/font&gt;" style="sketch=0;points=[[0,0,0],[0.25,0,0],[0.5,0,0],[0.75,0,0],[1,0,0],[0,1,0],[0.25,1,0],[0.5,1,0],[0.75,1,0],[1,1,0],[0,0.25,0],[0,0.5,0],[0,0.75,0],[1,0.25,0],[1,0.5,0],[1,0.75,0]];points=[[0,0,0],[0.25,0,0],[0.5,0,0],[0.75,0,0],[1,0,0],[0,1,0],[0.25,1,0],[0.5,1,0],[0.75,1,0],[1,1,0],[0,0.25,0],[0,0.5,0],[0,0.75,0],[1,0.25,0],[1,0.5,0],[1,0.75,0]];outlineConnect=0;fontColor=#232F3E;fillColor=#E7157B;strokeColor=#ffffff;dashed=0;verticalLabelPosition=bottom;verticalAlign=top;align=center;html=1;fontSize=12;fontStyle=0;aspect=fixed;shape=mxgraph.aws4.resourceIcon;resIcon=mxgraph.aws4.cloudwatch_2;" parent="ld0eEwanSj6hJB2W9I8I-41" vertex="1">
          <mxGeometry x="70" y="1059.47" width="78" height="78" as="geometry" />
        </mxCell>
        <mxCell id="4zGSPr-9QVFY_8gMiKBr-106" value="&lt;font size=&quot;1&quot; style=&quot;&quot;&gt;&lt;b style=&quot;font-size: 16px;&quot;&gt;Cloudtrail&lt;/b&gt;&lt;/font&gt;" style="sketch=0;points=[[0,0,0],[0.25,0,0],[0.5,0,0],[0.75,0,0],[1,0,0],[0,1,0],[0.25,1,0],[0.5,1,0],[0.75,1,0],[1,1,0],[0,0.25,0],[0,0.5,0],[0,0.75,0],[1,0.25,0],[1,0.5,0],[1,0.75,0]];points=[[0,0,0],[0.25,0,0],[0.5,0,0],[0.75,0,0],[1,0,0],[0,1,0],[0.25,1,0],[0.5,1,0],[0.75,1,0],[1,1,0],[0,0.25,0],[0,0.5,0],[0,0.75,0],[1,0.25,0],[1,0.5,0],[1,0.75,0]];outlineConnect=0;fontColor=#232F3E;fillColor=#E7157B;strokeColor=#ffffff;dashed=0;verticalLabelPosition=bottom;verticalAlign=top;align=center;html=1;fontSize=12;fontStyle=0;aspect=fixed;shape=mxgraph.aws4.resourceIcon;resIcon=mxgraph.aws4.cloudtrail;" parent="ld0eEwanSj6hJB2W9I8I-41" vertex="1">
          <mxGeometry x="190" y="1059.47" width="78" height="78" as="geometry" />
        </mxCell>
        <mxCell id="4zGSPr-9QVFY_8gMiKBr-108" value="&lt;font size=&quot;1&quot; style=&quot;&quot;&gt;&lt;b style=&quot;font-size: 16px;&quot;&gt;IAM&lt;/b&gt;&lt;/font&gt;" style="sketch=0;points=[[0,0,0],[0.25,0,0],[0.5,0,0],[0.75,0,0],[1,0,0],[0,1,0],[0.25,1,0],[0.5,1,0],[0.75,1,0],[1,1,0],[0,0.25,0],[0,0.5,0],[0,0.75,0],[1,0.25,0],[1,0.5,0],[1,0.75,0]];outlineConnect=0;fontColor=#232F3E;fillColor=#DD344C;strokeColor=#ffffff;dashed=0;verticalLabelPosition=bottom;verticalAlign=top;align=center;html=1;fontSize=12;fontStyle=0;aspect=fixed;shape=mxgraph.aws4.resourceIcon;resIcon=mxgraph.aws4.identity_and_access_management;" parent="ld0eEwanSj6hJB2W9I8I-41" vertex="1">
          <mxGeometry x="355.99" y="1059.47" width="78" height="78" as="geometry" />
        </mxCell>
        <mxCell id="4zGSPr-9QVFY_8gMiKBr-107" value="&lt;font style=&quot;font-size: 14px;&quot; color=&quot;#000000&quot;&gt;&lt;b&gt;Monitoring&lt;/b&gt;&lt;/font&gt;" style="fillColor=none;strokeColor=#000000;dashed=1;verticalAlign=top;fontStyle=0;fontColor=#007FFF;whiteSpace=wrap;html=1;strokeWidth=2;" parent="ld0eEwanSj6hJB2W9I8I-41" vertex="1">
          <mxGeometry x="30" y="1026.94" width="264.25" height="153.06" as="geometry" />
        </mxCell>
        <mxCell id="ld0eEwanSj6hJB2W9I8I-57" style="edgeStyle=orthogonalEdgeStyle;rounded=0;orthogonalLoop=1;jettySize=auto;html=1;startArrow=none;startFill=0;endArrow=open;endFill=0;strokeWidth=2;strokeColor=#1274FD;fillColor=#dae8fc;" parent="ld0eEwanSj6hJB2W9I8I-41" target="mJWdA4J20BdgcWv3grMu-45" edge="1">
          <mxGeometry relative="1" as="geometry">
            <Array as="points">
              <mxPoint x="1352.4700000000003" y="629.5" />
            </Array>
            <mxPoint x="1352.4700000000003" y="630" as="sourcePoint" />
            <mxPoint x="689.9700000000003" y="608.5" as="targetPoint" />
          </mxGeometry>
        </mxCell>
        <mxCell id="4zGSPr-9QVFY_8gMiKBr-245" value="&lt;b&gt;AWS Lambda&lt;br&gt;(ResizedVideo)&lt;/b&gt;" style="outlineConnect=0;fontColor=#232F3E;gradientColor=#F78E04;gradientDirection=north;fillColor=#D05C17;strokeColor=#ffffff;dashed=0;verticalLabelPosition=bottom;verticalAlign=top;align=center;html=1;fontSize=12;fontStyle=0;aspect=fixed;shape=mxgraph.aws4.resourceIcon;resIcon=mxgraph.aws4.lambda;labelBackgroundColor=#ffffff;spacingTop=3;" parent="ld0eEwanSj6hJB2W9I8I-41" vertex="1">
          <mxGeometry x="1061.97" y="220" width="78" height="78" as="geometry" />
        </mxCell>
        <mxCell id="4zGSPr-9QVFY_8gMiKBr-246" value="&lt;b&gt;Amazon SQS&lt;/b&gt;" style="sketch=0;points=[[0,0,0],[0.25,0,0],[0.5,0,0],[0.75,0,0],[1,0,0],[0,1,0],[0.25,1,0],[0.5,1,0],[0.75,1,0],[1,1,0],[0,0.25,0],[0,0.5,0],[0,0.75,0],[1,0.25,0],[1,0.5,0],[1,0.75,0]];outlineConnect=0;fontColor=#232F3E;fillColor=#E7157B;strokeColor=#ffffff;dashed=0;verticalLabelPosition=bottom;verticalAlign=top;align=center;html=1;fontSize=12;fontStyle=0;aspect=fixed;shape=mxgraph.aws4.resourceIcon;resIcon=mxgraph.aws4.sqs;" parent="ld0eEwanSj6hJB2W9I8I-41" vertex="1">
          <mxGeometry x="1351.9400000000003" y="220" width="78" height="78" as="geometry" />
        </mxCell>
        <mxCell id="4zGSPr-9QVFY_8gMiKBr-247" style="edgeStyle=orthogonalEdgeStyle;rounded=0;orthogonalLoop=1;jettySize=auto;html=1;startArrow=none;startFill=0;endArrow=open;endFill=0;strokeWidth=2;strokeColor=#1274FD;entryX=1;entryY=0.5;entryDx=0;entryDy=0;entryPerimeter=0;" parent="ld0eEwanSj6hJB2W9I8I-41" source="4zGSPr-9QVFY_8gMiKBr-9" target="4zGSPr-9QVFY_8gMiKBr-246" edge="1">
          <mxGeometry relative="1" as="geometry">
            <Array as="points">
              <mxPoint x="1540" y="550" />
              <mxPoint x="1540" y="259" />
            </Array>
            <mxPoint x="1590" y="340" as="sourcePoint" />
            <mxPoint x="1411.9400000000003" y="298.5" as="targetPoint" />
          </mxGeometry>
        </mxCell>
        <mxCell id="5lAl59n7Okdq8f2gYlIW-13" value="Transocde&lt;div style=&quot;font-size: 14px;&quot;&gt;video&lt;/div&gt;" style="edgeLabel;html=1;align=center;verticalAlign=middle;resizable=0;points=[];fontStyle=1;fontSize=14;" parent="4zGSPr-9QVFY_8gMiKBr-247" vertex="1" connectable="0">
          <mxGeometry x="0.7367" relative="1" as="geometry">
            <mxPoint x="-1" as="offset" />
          </mxGeometry>
        </mxCell>
        <mxCell id="4zGSPr-9QVFY_8gMiKBr-248" value="&lt;b&gt;Amazon SQS&lt;/b&gt;" style="sketch=0;points=[[0,0,0],[0.25,0,0],[0.5,0,0],[0.75,0,0],[1,0,0],[0,1,0],[0.25,1,0],[0.5,1,0],[0.75,1,0],[1,1,0],[0,0.25,0],[0,0.5,0],[0,0.75,0],[1,0.25,0],[1,0.5,0],[1,0.75,0]];outlineConnect=0;fontColor=#232F3E;fillColor=#E7157B;strokeColor=#ffffff;dashed=0;verticalLabelPosition=bottom;verticalAlign=top;align=center;html=1;fontSize=12;fontStyle=0;aspect=fixed;shape=mxgraph.aws4.resourceIcon;resIcon=mxgraph.aws4.sqs;" parent="ld0eEwanSj6hJB2W9I8I-41" vertex="1">
          <mxGeometry x="1351.9400000000003" y="340" width="78" height="78" as="geometry" />
        </mxCell>
        <mxCell id="4zGSPr-9QVFY_8gMiKBr-249" style="edgeStyle=orthogonalEdgeStyle;rounded=0;orthogonalLoop=1;jettySize=auto;html=1;startArrow=none;startFill=0;endArrow=open;endFill=0;strokeWidth=2;strokeColor=#1274FD;entryX=1;entryY=0.5;entryDx=0;entryDy=0;entryPerimeter=0;" parent="ld0eEwanSj6hJB2W9I8I-41" source="4zGSPr-9QVFY_8gMiKBr-9" target="4zGSPr-9QVFY_8gMiKBr-248" edge="1">
          <mxGeometry relative="1" as="geometry">
            <Array as="points">
              <mxPoint x="1500" y="561" />
              <mxPoint x="1500" y="379" />
            </Array>
            <mxPoint x="1592.97" y="350" as="sourcePoint" />
            <mxPoint x="1409.9400000000003" y="308.5" as="targetPoint" />
          </mxGeometry>
        </mxCell>
        <mxCell id="5lAl59n7Okdq8f2gYlIW-16" value="&lt;div style=&quot;font-size: 14px;&quot;&gt;Transcode&lt;/div&gt;&lt;div style=&quot;font-size: 14px;&quot;&gt;Image&lt;/div&gt;" style="edgeLabel;html=1;align=center;verticalAlign=middle;resizable=0;points=[];fontStyle=1;fontSize=14;" parent="4zGSPr-9QVFY_8gMiKBr-249" vertex="1" connectable="0">
          <mxGeometry x="0.8099" y="1" relative="1" as="geometry">
            <mxPoint x="36" y="70" as="offset" />
          </mxGeometry>
        </mxCell>
        <mxCell id="4zGSPr-9QVFY_8gMiKBr-250" style="edgeStyle=orthogonalEdgeStyle;rounded=0;orthogonalLoop=1;jettySize=auto;html=1;startArrow=none;startFill=0;endArrow=open;endFill=0;strokeWidth=2;strokeColor=#1274FD;exitX=0;exitY=0.5;exitDx=0;exitDy=0;exitPerimeter=0;" parent="ld0eEwanSj6hJB2W9I8I-41" source="4zGSPr-9QVFY_8gMiKBr-246" edge="1">
          <mxGeometry relative="1" as="geometry">
            <Array as="points" />
            <mxPoint x="1361.9400000000003" y="457" as="sourcePoint" />
            <mxPoint x="1139.97" y="259" as="targetPoint" />
          </mxGeometry>
        </mxCell>
        <mxCell id="4zGSPr-9QVFY_8gMiKBr-251" style="edgeStyle=orthogonalEdgeStyle;rounded=0;orthogonalLoop=1;jettySize=auto;html=1;startArrow=none;startFill=0;endArrow=open;endFill=0;strokeWidth=2;strokeColor=#1274FD;" parent="ld0eEwanSj6hJB2W9I8I-41" target="4zGSPr-9QVFY_8gMiKBr-25" edge="1">
          <mxGeometry relative="1" as="geometry">
            <Array as="points">
              <mxPoint x="1352" y="380" />
            </Array>
            <mxPoint x="1352" y="380" as="sourcePoint" />
            <mxPoint x="1139.97" y="390" as="targetPoint" />
          </mxGeometry>
        </mxCell>
        <mxCell id="4zGSPr-9QVFY_8gMiKBr-253" style="edgeStyle=orthogonalEdgeStyle;rounded=0;orthogonalLoop=1;jettySize=auto;html=1;startArrow=open;startFill=0;endArrow=none;endFill=0;strokeWidth=2;strokeColor=#1274FD;fillColor=#dae8fc;" parent="ld0eEwanSj6hJB2W9I8I-41" source="mJWdA4J20BdgcWv3grMu-29" target="4zGSPr-9QVFY_8gMiKBr-23" edge="1">
          <mxGeometry relative="1" as="geometry">
            <Array as="points">
              <mxPoint x="940" y="740" />
              <mxPoint x="940" y="507" />
            </Array>
            <mxPoint x="1835.4400000000003" y="739.75" as="sourcePoint" />
            <mxPoint x="1033.94" y="508" as="targetPoint" />
          </mxGeometry>
        </mxCell>
        <mxCell id="5lAl59n7Okdq8f2gYlIW-25" value="Return&lt;div style=&quot;font-size: 14px;&quot;&gt;thumbnail&lt;/div&gt;&lt;div style=&quot;font-size: 14px;&quot;&gt;to S3&lt;/div&gt;" style="edgeLabel;html=1;align=center;verticalAlign=middle;resizable=0;points=[];fontSize=14;fontStyle=1" parent="4zGSPr-9QVFY_8gMiKBr-253" vertex="1" connectable="0">
          <mxGeometry x="0.6588" relative="1" as="geometry">
            <mxPoint x="70" y="-99" as="offset" />
          </mxGeometry>
        </mxCell>
        <mxCell id="M7AUIgE2aPUpJo7r_4vC-1" value="&lt;b&gt;AWS MediaConvert&lt;/b&gt;" style="sketch=0;points=[[0,0,0],[0.25,0,0],[0.5,0,0],[0.75,0,0],[1,0,0],[0,1,0],[0.25,1,0],[0.5,1,0],[0.75,1,0],[1,1,0],[0,0.25,0],[0,0.5,0],[0,0.75,0],[1,0.25,0],[1,0.5,0],[1,0.75,0]];outlineConnect=0;fontColor=#232F3E;fillColor=#ED7100;strokeColor=#ffffff;dashed=0;verticalLabelPosition=bottom;verticalAlign=top;align=center;html=1;fontSize=12;fontStyle=0;aspect=fixed;shape=mxgraph.aws4.resourceIcon;resIcon=mxgraph.aws4.elemental_mediaconvert;" parent="ld0eEwanSj6hJB2W9I8I-41" vertex="1">
          <mxGeometry x="870" y="220" width="78" height="78" as="geometry" />
        </mxCell>
        <mxCell id="M7AUIgE2aPUpJo7r_4vC-3" style="edgeStyle=orthogonalEdgeStyle;rounded=0;orthogonalLoop=1;jettySize=auto;html=1;startArrow=none;startFill=0;endArrow=open;endFill=0;strokeWidth=2;strokeColor=#1274FD;entryX=1;entryY=0.5;entryDx=0;entryDy=0;entryPerimeter=0;" parent="ld0eEwanSj6hJB2W9I8I-41" source="4zGSPr-9QVFY_8gMiKBr-245" target="M7AUIgE2aPUpJo7r_4vC-1" edge="1">
          <mxGeometry relative="1" as="geometry">
            <Array as="points" />
            <mxPoint x="1362" y="269" as="sourcePoint" />
            <mxPoint x="1010" y="-430" as="targetPoint" />
          </mxGeometry>
        </mxCell>
        <mxCell id="5lAl59n7Okdq8f2gYlIW-22" value="MediaConvert&lt;div style=&quot;font-size: 14px;&quot;&gt;Trancode&lt;/div&gt;&lt;div style=&quot;font-size: 14px;&quot;&gt;Video&lt;/div&gt;" style="edgeLabel;html=1;align=center;verticalAlign=middle;resizable=0;points=[];fontSize=14;fontStyle=1" parent="M7AUIgE2aPUpJo7r_4vC-3" vertex="1" connectable="0">
          <mxGeometry x="0.0901" y="-1" relative="1" as="geometry">
            <mxPoint x="10" y="1" as="offset" />
          </mxGeometry>
        </mxCell>
        <mxCell id="M7AUIgE2aPUpJo7r_4vC-5" style="edgeStyle=orthogonalEdgeStyle;rounded=0;orthogonalLoop=1;jettySize=auto;html=1;startArrow=open;startFill=0;endArrow=none;endFill=0;strokeWidth=2;strokeColor=#1274FD;entryX=0;entryY=0.5;entryDx=0;entryDy=0;entryPerimeter=0;fillColor=#dae8fc;" parent="ld0eEwanSj6hJB2W9I8I-41" source="mJWdA4J20BdgcWv3grMu-29" target="M7AUIgE2aPUpJo7r_4vC-1" edge="1">
          <mxGeometry relative="1" as="geometry">
            <Array as="points">
              <mxPoint x="840" y="760" />
              <mxPoint x="840" y="259" />
            </Array>
            <mxPoint x="1864" y="760" as="sourcePoint" />
            <mxPoint x="918" y="269" as="targetPoint" />
          </mxGeometry>
        </mxCell>
        <mxCell id="5lAl59n7Okdq8f2gYlIW-23" value="Return&lt;div style=&quot;font-size: 14px;&quot;&gt;transcoded&lt;/div&gt;&lt;div style=&quot;font-size: 14px;&quot;&gt;video to S3&lt;/div&gt;" style="edgeLabel;html=1;align=center;verticalAlign=middle;resizable=0;points=[];fontSize=14;fontStyle=1" parent="M7AUIgE2aPUpJo7r_4vC-5" vertex="1" connectable="0">
          <mxGeometry x="0.649" y="-2" relative="1" as="geometry">
            <mxPoint x="-3" y="2" as="offset" />
          </mxGeometry>
        </mxCell>
        <mxCell id="M7AUIgE2aPUpJo7r_4vC-8" value="&lt;b&gt;Amazon SQS&lt;/b&gt;" style="sketch=0;points=[[0,0,0],[0.25,0,0],[0.5,0,0],[0.75,0,0],[1,0,0],[0,1,0],[0.25,1,0],[0.5,1,0],[0.75,1,0],[1,1,0],[0,0.25,0],[0,0.5,0],[0,0.75,0],[1,0.25,0],[1,0.5,0],[1,0.75,0]];outlineConnect=0;fontColor=#232F3E;fillColor=#E7157B;strokeColor=#ffffff;dashed=0;verticalLabelPosition=bottom;verticalAlign=top;align=center;html=1;fontSize=12;fontStyle=0;aspect=fixed;shape=mxgraph.aws4.resourceIcon;resIcon=mxgraph.aws4.sqs;" parent="ld0eEwanSj6hJB2W9I8I-41" vertex="1">
          <mxGeometry x="1351.9400000000003" y="99.99999999999999" width="78" height="78" as="geometry" />
        </mxCell>
        <mxCell id="M7AUIgE2aPUpJo7r_4vC-9" style="edgeStyle=orthogonalEdgeStyle;rounded=0;orthogonalLoop=1;jettySize=auto;html=1;startArrow=none;startFill=0;endArrow=open;endFill=0;strokeWidth=2;strokeColor=#1274FD;exitX=0;exitY=0.5;exitDx=0;exitDy=0;exitPerimeter=0;" parent="ld0eEwanSj6hJB2W9I8I-41" source="M7AUIgE2aPUpJo7r_4vC-8" target="5lAl59n7Okdq8f2gYlIW-3" edge="1">
          <mxGeometry relative="1" as="geometry">
            <Array as="points" />
            <mxPoint x="1362" y="269" as="sourcePoint" />
            <mxPoint x="1150" y="140" as="targetPoint" />
          </mxGeometry>
        </mxCell>
        <mxCell id="M7AUIgE2aPUpJo7r_4vC-10" style="edgeStyle=orthogonalEdgeStyle;rounded=0;orthogonalLoop=1;jettySize=auto;html=1;startArrow=open;startFill=0;endArrow=open;endFill=0;strokeWidth=2;strokeColor=#1274FD;" parent="ld0eEwanSj6hJB2W9I8I-41" source="5lAl59n7Okdq8f2gYlIW-3" target="mJWdA4J20BdgcWv3grMu-23" edge="1">
          <mxGeometry relative="1" as="geometry">
            <Array as="points">
              <mxPoint x="1101" y="60" />
              <mxPoint x="2030" y="60" />
              <mxPoint x="2030" y="1082" />
            </Array>
            <mxPoint x="920" y="-230" as="sourcePoint" />
            <mxPoint x="1150" y="149" as="targetPoint" />
          </mxGeometry>
        </mxCell>
        <mxCell id="5lAl59n7Okdq8f2gYlIW-27" value="Insert tag&lt;div style=&quot;font-size: 14px;&quot;&gt;to database&lt;/div&gt;" style="edgeLabel;html=1;align=center;verticalAlign=middle;resizable=0;points=[];fontStyle=1;fontSize=14;" parent="M7AUIgE2aPUpJo7r_4vC-10" vertex="1" connectable="0">
          <mxGeometry x="-0.5616" y="-2" relative="1" as="geometry">
            <mxPoint x="-23" as="offset" />
          </mxGeometry>
        </mxCell>
        <mxCell id="mJWdA4J20BdgcWv3grMu-19" value="&lt;font style=&quot;font-size: 16px;&quot;&gt;&lt;b&gt;Users&lt;/b&gt;&lt;/font&gt;" style="sketch=0;outlineConnect=0;gradientColor=none;fontColor=#545B64;strokeColor=none;fillColor=#879196;dashed=0;verticalLabelPosition=bottom;verticalAlign=top;align=center;html=1;fontSize=12;fontStyle=0;aspect=fixed;shape=mxgraph.aws4.illustration_users;pointerEvents=1" parent="ld0eEwanSj6hJB2W9I8I-41" vertex="1">
          <mxGeometry x="-310" y="736.9300000000002" width="200" height="200" as="geometry" />
        </mxCell>
        <mxCell id="mJWdA4J20BdgcWv3grMu-11" style="edgeStyle=orthogonalEdgeStyle;rounded=0;orthogonalLoop=1;jettySize=auto;html=1;startArrow=open;startFill=0;endArrow=open;endFill=0;strokeWidth=2;strokeColor=#808080;" parent="ld0eEwanSj6hJB2W9I8I-41" source="mJWdA4J20BdgcWv3grMu-19" target="mJWdA4J20BdgcWv3grMu-10" edge="1">
          <mxGeometry relative="1" as="geometry">
            <Array as="points">
              <mxPoint x="40" y="779.9999999999999" />
              <mxPoint x="40" y="337.9999999999999" />
            </Array>
            <mxPoint x="128.5" y="749.4999999999999" as="sourcePoint" />
            <mxPoint x="498.5" y="609.4999999999999" as="targetPoint" />
          </mxGeometry>
        </mxCell>
        <mxCell id="4zGSPr-9QVFY_8gMiKBr-4" value="DNS&lt;div style=&quot;font-size: 14px;&quot;&gt;mapping&lt;/div&gt;" style="edgeLabel;html=1;align=center;verticalAlign=middle;resizable=0;points=[];fontSize=14;fontStyle=1" parent="mJWdA4J20BdgcWv3grMu-11" vertex="1" connectable="0">
          <mxGeometry x="0.0279" y="-2" relative="1" as="geometry">
            <mxPoint x="-1" y="-104" as="offset" />
          </mxGeometry>
        </mxCell>
        <mxCell id="mJWdA4J20BdgcWv3grMu-1" style="edgeStyle=orthogonalEdgeStyle;rounded=0;orthogonalLoop=1;jettySize=auto;html=1;startArrow=open;startFill=0;endArrow=open;endFill=0;strokeWidth=2;strokeColor=#808080;" parent="ld0eEwanSj6hJB2W9I8I-41" source="mJWdA4J20BdgcWv3grMu-19" target="mJWdA4J20BdgcWv3grMu-5" edge="1">
          <mxGeometry relative="1" as="geometry">
            <Array as="points">
              <mxPoint x="310" y="830" />
              <mxPoint x="310" y="270" />
            </Array>
            <mxPoint x="69" y="1339.9999999999998" as="sourcePoint" />
          </mxGeometry>
        </mxCell>
        <mxCell id="4zGSPr-9QVFY_8gMiKBr-5" value="Authentication&amp;nbsp;&lt;div style=&quot;font-size: 14px;&quot;&gt;&amp;amp;&lt;div style=&quot;font-size: 14px;&quot;&gt;Authorization&lt;/div&gt;&lt;/div&gt;" style="edgeLabel;html=1;align=center;verticalAlign=middle;resizable=0;points=[];fontSize=14;fontStyle=1" parent="mJWdA4J20BdgcWv3grMu-1" vertex="1" connectable="0">
          <mxGeometry x="-0.1973" y="-2" relative="1" as="geometry">
            <mxPoint x="11" y="-325" as="offset" />
          </mxGeometry>
        </mxCell>
        <mxCell id="mJWdA4J20BdgcWv3grMu-21" style="edgeStyle=orthogonalEdgeStyle;rounded=0;orthogonalLoop=1;jettySize=auto;html=1;startArrow=open;startFill=0;endArrow=open;endFill=0;strokeWidth=2;strokeColor=#808080;entryX=0;entryY=0.5;entryDx=0;entryDy=0;entryPerimeter=0;" parent="ld0eEwanSj6hJB2W9I8I-41" source="mJWdA4J20BdgcWv3grMu-19" target="5lAl59n7Okdq8f2gYlIW-33" edge="1">
          <mxGeometry relative="1" as="geometry">
            <Array as="points">
              <mxPoint x="340" y="905" />
            </Array>
            <mxPoint x="-28.995639417199413" y="869.9999999999999" as="sourcePoint" />
            <mxPoint x="550" y="1319.9999999999998" as="targetPoint" />
          </mxGeometry>
        </mxCell>
        <mxCell id="5lAl59n7Okdq8f2gYlIW-3" value="&lt;b&gt;AWS Lambda&lt;br&gt;(IdentifyTag)&lt;/b&gt;" style="outlineConnect=0;fontColor=#232F3E;gradientColor=#F78E04;gradientDirection=north;fillColor=#D05C17;strokeColor=#ffffff;dashed=0;verticalLabelPosition=bottom;verticalAlign=top;align=center;html=1;fontSize=12;fontStyle=0;aspect=fixed;shape=mxgraph.aws4.resourceIcon;resIcon=mxgraph.aws4.lambda;labelBackgroundColor=#ffffff;spacingTop=3;" parent="ld0eEwanSj6hJB2W9I8I-41" vertex="1">
          <mxGeometry x="1061.97" y="100" width="78" height="78" as="geometry" />
        </mxCell>
        <mxCell id="5lAl59n7Okdq8f2gYlIW-4" style="edgeStyle=orthogonalEdgeStyle;rounded=0;orthogonalLoop=1;jettySize=auto;html=1;startArrow=none;startFill=0;endArrow=open;endFill=0;strokeWidth=2;strokeColor=#1274FD;entryX=1;entryY=0.5;entryDx=0;entryDy=0;entryPerimeter=0;" parent="ld0eEwanSj6hJB2W9I8I-41" source="5lAl59n7Okdq8f2gYlIW-3" target="4zGSPr-9QVFY_8gMiKBr-27" edge="1">
          <mxGeometry relative="1" as="geometry">
            <Array as="points">
              <mxPoint x="1030" y="139" />
              <mxPoint x="1030" y="139" />
            </Array>
            <mxPoint x="1362" y="149" as="sourcePoint" />
            <mxPoint x="1150" y="149" as="targetPoint" />
          </mxGeometry>
        </mxCell>
        <mxCell id="5lAl59n7Okdq8f2gYlIW-21" value="Rekognition&lt;div style=&quot;font-size: 14px;&quot;&gt;Image&lt;/div&gt;&lt;div style=&quot;font-size: 14px;&quot;&gt;Labeling&lt;/div&gt;" style="edgeLabel;html=1;align=center;verticalAlign=middle;resizable=0;points=[];fontSize=14;fontStyle=1" parent="5lAl59n7Okdq8f2gYlIW-4" vertex="1" connectable="0">
          <mxGeometry x="0.0706" y="1" relative="1" as="geometry">
            <mxPoint x="9" y="-1" as="offset" />
          </mxGeometry>
        </mxCell>
        <mxCell id="5lAl59n7Okdq8f2gYlIW-14" style="edgeStyle=orthogonalEdgeStyle;rounded=0;orthogonalLoop=1;jettySize=auto;html=1;startArrow=none;startFill=0;endArrow=open;endFill=0;strokeWidth=2;strokeColor=#1274FD;" parent="ld0eEwanSj6hJB2W9I8I-41" source="4zGSPr-9QVFY_8gMiKBr-9" target="M7AUIgE2aPUpJo7r_4vC-8" edge="1">
          <mxGeometry relative="1" as="geometry">
            <Array as="points">
              <mxPoint x="1550" y="540" />
              <mxPoint x="1550" y="140" />
            </Array>
            <mxPoint x="1603" y="570" as="sourcePoint" />
            <mxPoint x="1440" y="269" as="targetPoint" />
          </mxGeometry>
        </mxCell>
        <mxCell id="5lAl59n7Okdq8f2gYlIW-15" value="Identify&lt;div style=&quot;font-size: 14px;&quot;&gt;photo tag&lt;/div&gt;" style="edgeLabel;html=1;align=center;verticalAlign=middle;resizable=0;points=[];fontStyle=1;fontSize=14;" parent="5lAl59n7Okdq8f2gYlIW-14" vertex="1" connectable="0">
          <mxGeometry x="0.7367" relative="1" as="geometry">
            <mxPoint x="-19" y="-1" as="offset" />
          </mxGeometry>
        </mxCell>
        <mxCell id="5lAl59n7Okdq8f2gYlIW-30" value="&lt;font size=&quot;1&quot; style=&quot;&quot;&gt;&lt;b style=&quot;font-size: 16px;&quot;&gt;CodeCommit&lt;/b&gt;&lt;/font&gt;" style="sketch=0;points=[[0,0,0],[0.25,0,0],[0.5,0,0],[0.75,0,0],[1,0,0],[0,1,0],[0.25,1,0],[0.5,1,0],[0.75,1,0],[1,1,0],[0,0.25,0],[0,0.5,0],[0,0.75,0],[1,0.25,0],[1,0.5,0],[1,0.75,0]];outlineConnect=0;fontColor=#232F3E;fillColor=#C925D1;strokeColor=#ffffff;dashed=0;verticalLabelPosition=bottom;verticalAlign=top;align=center;html=1;fontSize=12;fontStyle=0;aspect=fixed;shape=mxgraph.aws4.resourceIcon;resIcon=mxgraph.aws4.codecommit;" parent="ld0eEwanSj6hJB2W9I8I-41" vertex="1">
          <mxGeometry x="513.47" y="1059.47" width="78" height="78" as="geometry" />
        </mxCell>
        <mxCell id="5lAl59n7Okdq8f2gYlIW-31" style="edgeStyle=orthogonalEdgeStyle;rounded=0;orthogonalLoop=1;jettySize=auto;html=1;startArrow=open;startFill=0;endArrow=open;endFill=0;strokeWidth=2;strokeColor=#808080;exitX=1;exitY=0.5;exitDx=0;exitDy=0;exitPerimeter=0;entryX=1;entryY=0.5;entryDx=0;entryDy=0;entryPerimeter=0;" parent="ld0eEwanSj6hJB2W9I8I-41" source="mJWdA4J20BdgcWv3grMu-14" target="5lAl59n7Okdq8f2gYlIW-30" edge="1">
          <mxGeometry relative="1" as="geometry">
            <Array as="points">
              <mxPoint x="640" y="139" />
              <mxPoint x="640" y="1098" />
            </Array>
            <mxPoint x="-100" y="915" as="sourcePoint" />
            <mxPoint x="580" y="1082" as="targetPoint" />
          </mxGeometry>
        </mxCell>
        <mxCell id="5lAl59n7Okdq8f2gYlIW-32" value="Code&lt;div style=&quot;font-size: 14px;&quot;&gt;Deployment&lt;/div&gt;" style="edgeLabel;html=1;align=center;verticalAlign=middle;resizable=0;points=[];fontSize=14;fontStyle=1" parent="5lAl59n7Okdq8f2gYlIW-31" vertex="1" connectable="0">
          <mxGeometry x="-0.2302" y="-1" relative="1" as="geometry">
            <mxPoint y="11" as="offset" />
          </mxGeometry>
        </mxCell>
        <mxCell id="5lAl59n7Okdq8f2gYlIW-33" value="&lt;font size=&quot;1&quot; style=&quot;&quot;&gt;&lt;b style=&quot;font-size: 16px;&quot;&gt;Amazon WAF&lt;/b&gt;&lt;/font&gt;" style="sketch=0;points=[[0,0,0],[0.25,0,0],[0.5,0,0],[0.75,0,0],[1,0,0],[0,1,0],[0.25,1,0],[0.5,1,0],[0.75,1,0],[1,1,0],[0,0.25,0],[0,0.5,0],[0,0.75,0],[1,0.25,0],[1,0.5,0],[1,0.75,0]];outlineConnect=0;fontColor=#232F3E;fillColor=#DD344C;strokeColor=#ffffff;dashed=0;verticalLabelPosition=bottom;verticalAlign=top;align=center;html=1;fontSize=12;fontStyle=0;aspect=fixed;shape=mxgraph.aws4.resourceIcon;resIcon=mxgraph.aws4.waf;" parent="ld0eEwanSj6hJB2W9I8I-41" vertex="1">
          <mxGeometry x="357.23" y="866.4300000000001" width="78" height="78" as="geometry" />
        </mxCell>
        <mxCell id="5lAl59n7Okdq8f2gYlIW-34" style="edgeStyle=orthogonalEdgeStyle;rounded=0;orthogonalLoop=1;jettySize=auto;html=1;startArrow=open;startFill=0;endArrow=open;endFill=0;strokeWidth=2;strokeColor=#808080;entryX=0;entryY=0.5;entryDx=0;entryDy=0;entryPerimeter=0;" parent="ld0eEwanSj6hJB2W9I8I-41" source="5lAl59n7Okdq8f2gYlIW-33" target="mJWdA4J20BdgcWv3grMu-20" edge="1">
          <mxGeometry relative="1" as="geometry">
            <Array as="points">
              <mxPoint x="500" y="905" />
              <mxPoint x="500" y="905" />
            </Array>
            <mxPoint x="430" y="905" as="sourcePoint" />
            <mxPoint x="360" y="915" as="targetPoint" />
          </mxGeometry>
        </mxCell>
        <mxCell id="5lAl59n7Okdq8f2gYlIW-35" value="&lt;font style=&quot;font-size: 14px;&quot; color=&quot;#000000&quot;&gt;&lt;b&gt;Firewall&lt;/b&gt;&lt;/font&gt;" style="fillColor=none;strokeColor=#000000;dashed=1;verticalAlign=top;fontStyle=0;fontColor=#007FFF;whiteSpace=wrap;html=1;strokeWidth=2;" parent="ld0eEwanSj6hJB2W9I8I-41" vertex="1">
          <mxGeometry x="329.99" y="840.0000000000001" width="130" height="143.07" as="geometry" />
        </mxCell>
        <mxCell id="5lAl59n7Okdq8f2gYlIW-29" value="&lt;font style=&quot;font-size: 14px;&quot; color=&quot;#000000&quot;&gt;&lt;b&gt;Develop&lt;/b&gt;&lt;/font&gt;" style="fillColor=none;strokeColor=#000000;dashed=1;verticalAlign=top;fontStyle=0;fontColor=#007FFF;whiteSpace=wrap;html=1;strokeWidth=2;" parent="ld0eEwanSj6hJB2W9I8I-41" vertex="1">
          <mxGeometry x="487.47" y="1026.94" width="130" height="153.06" as="geometry" />
        </mxCell>
        <mxCell id="ld0eEwanSj6hJB2W9I8I-42" value="&lt;font style=&quot;font-size: 15px;&quot; color=&quot;#000000&quot;&gt;&lt;b&gt;Presentation tier&lt;/b&gt;&lt;/font&gt;" style="fillColor=none;strokeColor=#000000;dashed=1;verticalAlign=top;fontStyle=0;fontColor=#007FFF;whiteSpace=wrap;html=1;strokeWidth=2;" parent="ld0eEwanSj6hJB2W9I8I-41" vertex="1">
          <mxGeometry x="240" y="20" width="440" height="340" as="geometry" />
        </mxCell>
        <mxCell id="4zGSPr-9QVFY_8gMiKBr-109" value="&lt;font style=&quot;font-size: 14px;&quot; color=&quot;#000000&quot;&gt;&lt;b&gt;Security&lt;/b&gt;&lt;/font&gt;" style="fillColor=none;strokeColor=#000000;dashed=1;verticalAlign=top;fontStyle=0;fontColor=#007FFF;whiteSpace=wrap;html=1;strokeWidth=2;" parent="ld0eEwanSj6hJB2W9I8I-41" vertex="1">
          <mxGeometry x="329.99" y="1026.67" width="132.47" height="153.6" as="geometry" />
        </mxCell>
        <mxCell id="ld0eEwanSj6hJB2W9I8I-47" value="&lt;font color=&quot;#000000&quot; style=&quot;font-size: 15px;&quot;&gt;Data Tier&lt;/font&gt;" style="fillColor=none;strokeColor=#000000;dashed=1;verticalAlign=top;fontStyle=1;fontColor=#007FFF;whiteSpace=wrap;html=1;strokeWidth=2;" parent="ld0eEwanSj6hJB2W9I8I-41" vertex="1">
          <mxGeometry x="1720" y="19.470000000000027" width="330" height="1160.53" as="geometry" />
        </mxCell>
        <mxCell id="4zGSPr-9QVFY_8gMiKBr-112" style="edgeStyle=orthogonalEdgeStyle;rounded=0;orthogonalLoop=1;jettySize=auto;html=1;exitX=0.5;exitY=1;exitDx=0;exitDy=0;" parent="ld0eEwanSj6hJB2W9I8I-41" source="ld0eEwanSj6hJB2W9I8I-47" target="ld0eEwanSj6hJB2W9I8I-47" edge="1">
          <mxGeometry relative="1" as="geometry" />
        </mxCell>
        <mxCell id="ld0eEwanSj6hJB2W9I8I-45" value="&lt;font style=&quot;font-size: 15px;&quot; color=&quot;#000000&quot;&gt;&lt;b&gt;Logic Tier&lt;/b&gt;&lt;/font&gt;" style="fillColor=none;strokeColor=#000000;dashed=1;verticalAlign=top;fontStyle=0;fontColor=#5A6C86;whiteSpace=wrap;html=1;strokeWidth=2;" parent="ld0eEwanSj6hJB2W9I8I-41" vertex="1">
          <mxGeometry x="710" y="20" width="990" height="1160.53" as="geometry" />
        </mxCell>
        <mxCell id="mo6SnE74Rb5duCn3PRFS-5" style="edgeStyle=orthogonalEdgeStyle;rounded=0;orthogonalLoop=1;jettySize=auto;html=1;startArrow=open;startFill=0;endArrow=none;endFill=0;strokeWidth=2;strokeColor=#1274FD;fillColor=#dae8fc;" edge="1" parent="1" target="4zGSPr-9QVFY_8gMiKBr-25">
          <mxGeometry relative="1" as="geometry">
            <Array as="points">
              <mxPoint x="1360" y="1730" />
              <mxPoint x="1360" y="1359" />
            </Array>
            <mxPoint x="2330" y="1730" as="sourcePoint" />
            <mxPoint x="1522" y="1497" as="targetPoint" />
          </mxGeometry>
        </mxCell>
        <mxCell id="mo6SnE74Rb5duCn3PRFS-6" value="Return&lt;div style=&quot;font-size: 14px;&quot;&gt;resized image&lt;/div&gt;&lt;div style=&quot;font-size: 14px;&quot;&gt;to S3&lt;/div&gt;" style="edgeLabel;html=1;align=center;verticalAlign=middle;resizable=0;points=[];fontSize=14;fontStyle=1" vertex="1" connectable="0" parent="mo6SnE74Rb5duCn3PRFS-5">
          <mxGeometry x="0.6588" relative="1" as="geometry">
            <mxPoint x="90" y="-103" as="offset" />
          </mxGeometry>
        </mxCell>
      </root>
    </mxGraphModel>
  </diagram>
</mxfile>
